# xmcd
#
# Track frame offsets:
# 150
# 17425
# 36037
# 54800
# 71930
# 91757
# 110050
# 129907
# 150000
# 171362
#
# Disc length: 2604 seconds
#
#
# Revision: 6
# Processed by: cddbd v1.5.1PL0 Copyright (c) Steve Scherf et al.
# Submitted via: FreeRIP 2.53 
#
DISCID=6f0a2a0a
DTITLE=Various Artist - Steppin' Country (Extended Club Mixes)
DYEAR=1993
DGENRE=Country
TTITLE0=I Want You Bad (And That Ain't Good) - Collin Raye
TTITLE1=Romeo - Dolly Parton
TTITLE2=Heartache Big As Texas - Ricky Van Shelton
TTITLE3=Honky Tonk Attitude - Joe Diffie
TTITLE4=Down At The Twist And Shout - Mary Chapin Carpenter
TTITLE5=Wild Man - Ricy Van Shelton
TTITLE6=Texas Tattoo - Gibson Miller Band
TTITLE7=I Feel Lucky - Mary Chapin Carpenter
TTITLE8=Get In Line - Larry Boone
TTITLE9=Rosalee - Stacy Dean Campbell
EXTD=Columbia Country Dance Collection\nYear: 1993
EXTT0=
EXTT1=
EXTT2=
EXTT3=
EXTT4=
EXTT5=
EXTT6=
EXTT7=
EXTT8=
EXTT9=
PLAYORDER=
